<svg width="175" height="41" viewBox="0 0 175 41" fill="none" xmlns="http://www.w3.org/2000/svg">
<path d="M27.6935 0.0001129C27.6935 0.0001129 24.8518 0.129641 21.8128 1.82311C18.7739 3.51657 16.2657 6.3662 16.2657 6.3662C16.2422 6.39498 16.2187 6.43336 16.1999 6.47654C16.1812 6.43336 16.1577 6.39498 16.1342 6.3662C16.1342 6.3662 13.6213 3.51177 10.5871 1.82311C7.54811 0.129641 4.70644 0.0001129 4.70644 0.0001129C4.6078 -0.00468445 4.52795 0.144033 4.52795 0.326333V34.282C4.52795 34.4643 4.6078 34.6274 4.70644 34.6418C4.70644 34.6418 7.67493 35.1119 12.7242 38.3597C14.0722 39.228 16.1248 40.9743 16.1248 40.9743C16.153 40.9983 16.1765 41.0031 16.1999 40.9935C16.2234 40.9983 16.2469 40.9935 16.2751 40.9743C16.2751 40.9743 18.3277 39.228 19.6757 38.3597C24.725 35.1119 27.6935 34.6418 27.6935 34.6418C27.7921 34.6274 27.8719 34.4643 27.8719 34.282V0.326333C27.8719 0.144033 27.7921 -0.00468445 27.6935 0.0001129Z" fill="#FFC85C"/>
<path d="M30.1593 2.60511C30.1593 2.60511 26.707 2.72984 23.0198 4.31296C19.3327 5.89609 16.2844 8.56821 16.2844 8.56821C16.2562 8.5922 16.228 8.63058 16.2045 8.66895C16.181 8.62578 16.1529 8.5922 16.1247 8.56821C16.1247 8.56821 13.0763 5.89609 9.38922 4.31296C5.70209 2.72984 2.24981 2.60511 2.24981 2.60511C2.12769 2.60031 2.02905 2.73463 2.02905 2.90734V34.709C2.02905 34.8817 2.12769 35.0304 2.24511 35.0448C2.24511 35.0448 5.85239 35.4861 11.982 38.5277C13.6165 39.3384 16.1106 40.9743 16.1106 40.9743C16.1435 40.9983 16.1717 40.9983 16.1998 40.9935C16.228 40.9983 16.2562 40.9935 16.2891 40.9743C16.2891 40.9743 18.7832 39.3384 20.4177 38.5277C26.5473 35.4861 30.1546 35.0448 30.1546 35.0448C30.272 35.0304 30.3706 34.8769 30.3706 34.709V2.90734C30.3753 2.73463 30.2767 2.60031 30.1593 2.60511Z" fill="#FBB03B"/>
<path d="M32.1555 5.56507C32.1555 5.56507 28.2101 5.68021 23.9969 7.1386C19.7837 8.60179 16.2938 11.0676 16.2938 11.0676C16.2609 11.0916 16.2328 11.1252 16.2046 11.1636C16.1764 11.1252 16.1482 11.0916 16.1153 11.0676C16.1153 11.0676 12.6302 8.60179 8.41229 7.1386C4.1944 5.68021 0.24894 5.56507 0.24894 5.56507C0.112727 5.56027 0 5.6898 0 5.84811V35.1935C0 35.3518 0.112727 35.4909 0.244243 35.5053C0.244243 35.5053 4.36819 35.9131 11.3761 38.7196C13.2455 39.4679 16.0965 40.9791 16.0965 40.9791C16.1341 40.9983 16.167 41.0031 16.1999 40.9983C16.2328 41.0031 16.2656 40.9983 16.3032 40.9791C16.3032 40.9791 19.1543 39.4679 21.0237 38.7196C28.0316 35.9131 32.1555 35.5053 32.1555 35.5053C32.2917 35.4909 32.3998 35.3518 32.3998 35.1935V5.84811C32.4045 5.6898 32.2917 5.56027 32.1555 5.56507Z" fill="#FF4E36"/>
<path d="M56.7725 22.8402H47.6181C47.7825 23.6078 48.1723 24.2123 48.7876 24.6536C49.4029 25.0998 50.1685 25.3205 51.0845 25.3205C51.7139 25.3205 52.2728 25.2245 52.7613 25.0326C53.2498 24.8407 53.7007 24.5385 54.1234 24.1259L55.9928 26.1936C54.8514 27.5273 53.1887 28.1941 50.9999 28.1941C49.6331 28.1941 48.426 27.9206 47.3785 27.3785C46.3264 26.8364 45.5185 26.0785 44.9502 25.1142C44.3819 24.1499 44.0953 23.0561 44.0953 21.828C44.0953 20.6191 44.3772 19.5253 44.9408 18.5514C45.5044 17.5775 46.2747 16.8196 47.2564 16.2775C48.2381 15.7354 49.3372 15.4619 50.5537 15.4619C51.7373 15.4619 52.813 15.721 53.7711 16.2439C54.7293 16.7668 55.4855 17.5104 56.0304 18.4842C56.5799 19.4581 56.8524 20.5855 56.8524 21.876C56.8383 21.9191 56.8195 22.2454 56.7725 22.8402ZM48.5622 18.8632C48.022 19.3238 47.6932 19.9522 47.5711 20.7486H53.5316C53.4095 19.9666 53.0807 19.343 52.5405 18.8776C52.0004 18.4123 51.3381 18.1772 50.5584 18.1772C49.7693 18.1772 49.1023 18.4075 48.5622 18.8632Z" fill="white"/>
<path d="M77.8216 17.3068C78.714 18.2183 79.1602 19.5855 79.1602 21.4085V28.4846H75.6516V21.9602C75.6516 20.9816 75.4543 20.2476 75.0551 19.7678C74.6558 19.2833 74.0922 19.0434 73.3548 19.0434C72.5281 19.0434 71.8752 19.3169 71.3961 19.859C70.917 20.4011 70.6775 21.2118 70.6775 22.2816V28.4846H67.1689V21.9602C67.1689 20.0125 66.4032 19.0434 64.872 19.0434C64.0641 19.0434 63.416 19.3169 62.9369 19.859C62.4578 20.4011 62.2182 21.2118 62.2182 22.2816V28.4846H58.7096V16.1266H62.0632V17.5514C62.5141 17.0333 63.0637 16.6304 63.7166 16.3569C64.3695 16.0835 65.0834 15.9443 65.8631 15.9443C66.7179 15.9443 67.4882 16.117 68.1787 16.4624C68.8692 16.8079 69.4234 17.3116 69.8414 17.9688C70.3346 17.326 70.964 16.827 71.7202 16.4768C72.4764 16.1266 73.3078 15.9491 74.2049 15.9491C75.7221 15.9395 76.9292 16.4001 77.8216 17.3068Z" fill="white"/>
<path d="M85.2456 27.3785C84.2311 26.8364 83.442 26.0785 82.8736 25.1142C82.3053 24.1499 82.0188 23.0561 82.0188 21.828C82.0188 20.6047 82.3053 19.5061 82.8736 18.5418C83.442 17.5775 84.2358 16.8244 85.2456 16.2775C86.2602 15.7354 87.4015 15.4619 88.6744 15.4619C89.9473 15.4619 91.0886 15.7354 92.0938 16.2775C93.0989 16.8196 93.888 17.5775 94.4564 18.5418C95.0247 19.5061 95.3112 20.6047 95.3112 21.828C95.3112 23.0561 95.0247 24.1499 94.4564 25.1142C93.888 26.0785 93.0989 26.8316 92.0938 27.3785C91.0886 27.9206 89.9473 28.1941 88.6744 28.1941C87.4015 28.1941 86.2555 27.9206 85.2456 27.3785ZM90.8914 24.3226C91.4691 23.7038 91.7556 22.869 91.7556 21.828C91.7556 20.787 91.4644 19.957 90.8914 19.3334C90.3136 18.7145 89.5762 18.4027 88.6744 18.4027C87.7726 18.4027 87.0305 18.7145 86.448 19.3334C85.8609 19.9522 85.5697 20.787 85.5697 21.828C85.5697 22.869 85.8609 23.699 86.448 24.3226C87.0352 24.9415 87.7773 25.2533 88.6744 25.2533C89.5762 25.2533 90.3136 24.9415 90.8914 24.3226Z" fill="white"/>
<path d="M93.9398 31.9647L94.8839 29.3694C95.2879 29.662 95.7857 29.8059 96.3682 29.8059C96.8191 29.8059 97.1714 29.6572 97.425 29.3598C97.6786 29.0623 97.8054 28.6114 97.8054 28.0165V15.6489H101.314V27.9877C101.314 29.4269 100.915 30.5639 100.112 31.3986C99.3085 32.2334 98.1859 32.6507 96.7486 32.6507C95.5227 32.6507 94.5833 32.4205 93.9398 31.9647Z" fill="white"/>
<path d="M108.068 15.6489H104.559V28.0117H108.068V15.6489Z" fill="white"/>
<path d="M112.455 27.8149C111.497 27.5607 110.731 27.2441 110.158 26.8603L111.328 24.2889C111.868 24.6439 112.521 24.9269 113.286 25.1524C114.052 25.3731 114.799 25.4834 115.536 25.4834C117.02 25.4834 117.763 25.1092 117.763 24.356C117.763 24.0058 117.561 23.7516 117.157 23.5981C116.753 23.4445 116.128 23.315 115.287 23.2095C114.296 23.056 113.479 22.8785 112.835 22.6818C112.192 22.4803 111.633 22.1301 111.159 21.6264C110.684 21.1226 110.449 20.403 110.449 19.4675C110.449 18.6856 110.67 17.9948 111.112 17.3855C111.553 16.781 112.197 16.3109 113.047 15.9703C113.892 15.6345 114.893 15.4666 116.048 15.4666C116.903 15.4666 117.753 15.5625 118.603 15.7544C119.449 15.9463 120.153 16.2101 120.708 16.546L119.538 19.0981C118.472 18.4841 117.312 18.1771 116.053 18.1771C115.301 18.1771 114.742 18.2826 114.367 18.4985C113.991 18.7144 113.803 18.9878 113.803 19.3236C113.803 19.7074 114.005 19.9761 114.409 20.1296C114.813 20.2831 115.456 20.427 116.344 20.5661C117.335 20.734 118.143 20.9163 118.772 21.1082C119.402 21.3001 119.951 21.6503 120.416 22.1541C120.881 22.6578 121.112 23.363 121.112 24.2697C121.112 25.0373 120.886 25.7185 120.435 26.3134C119.984 26.913 119.327 27.3736 118.467 27.7046C117.603 28.0356 116.579 28.1987 115.395 28.1987C114.4 28.1939 113.413 28.0692 112.455 27.8149Z" fill="white"/>
<path d="M123.709 27.5512C123.291 27.1242 123.08 26.5869 123.08 25.9441C123.08 25.2869 123.291 24.7543 123.709 24.3466C124.127 23.9388 124.648 23.7373 125.264 23.7373C125.879 23.7373 126.396 23.9388 126.814 24.3466C127.232 24.7543 127.443 25.2869 127.443 25.9441C127.443 26.5869 127.232 27.1242 126.814 27.5512C126.396 27.9782 125.874 28.194 125.264 28.194C124.644 28.194 124.127 27.9782 123.709 27.5512Z" fill="white"/>
<path d="M149.735 13.6965C149.317 13.2695 149.106 12.7322 149.106 12.0893C149.106 11.4321 149.317 10.8996 149.735 10.4918C150.153 10.0841 150.674 9.88257 151.29 9.88257C151.905 9.88257 152.422 10.0841 152.84 10.4918C153.258 10.8996 153.469 11.4321 153.469 12.0893C153.469 12.7322 153.258 13.2695 152.84 13.6965C152.422 14.1234 151.9 14.3393 151.29 14.3393C150.67 14.3393 150.153 14.1234 149.735 13.6965Z" fill="white"/>
<path d="M171.266 13.6965C170.848 13.2695 170.637 12.7322 170.637 12.0893C170.637 11.4321 170.848 10.8996 171.266 10.4918C171.684 10.0841 172.206 9.88257 172.821 9.88257C173.436 9.88257 173.953 10.0841 174.371 10.4918C174.789 10.8996 175 11.4321 175 12.0893C175 12.7322 174.789 13.2695 174.371 13.6965C173.953 14.1234 173.431 14.3393 172.821 14.3393C172.201 14.3393 171.684 14.1234 171.266 13.6965Z" fill="white"/>
<path d="M104.762 13.6965C104.344 13.2695 104.132 12.7322 104.132 12.0893C104.132 11.4321 104.344 10.8996 104.762 10.4918C105.18 10.0841 105.701 9.88257 106.316 9.88257C106.932 9.88257 107.448 10.0841 107.866 10.4918C108.284 10.8996 108.496 11.4321 108.496 12.0893C108.496 12.7322 108.284 13.2695 107.866 13.6965C107.448 14.1234 106.927 14.3393 106.316 14.3393C105.696 14.3393 105.18 14.1234 104.762 13.6965Z" fill="white"/>
<path d="M97.7819 13.6965C97.3638 13.2695 97.1525 12.7322 97.1525 12.0893C97.1525 11.4321 97.3638 10.8996 97.7819 10.4918C98.1999 10.0841 98.7213 9.88257 99.3366 9.88257C99.9519 9.88257 100.469 10.0841 100.887 10.4918C101.305 10.8996 101.516 11.4321 101.516 12.0893C101.516 12.7322 101.305 13.2695 100.887 13.6965C100.469 14.1234 99.9472 14.3393 99.3366 14.3393C98.7213 14.3393 98.2046 14.1234 97.7819 13.6965Z" fill="white"/>
<path d="M147.889 15.6489L143.502 28.0117H140.13L137.406 20.3359L134.592 28.0117H131.22L126.856 15.6489H130.163L133.019 24.0155L135.987 15.6489H138.956L141.835 24.0155L144.78 15.6489H147.889Z" fill="white"/>
<path d="M153.042 15.6489H149.533V28.0117H153.042V15.6489Z" fill="white"/>
<path d="M161.501 23.1616L159.815 24.8598V28.0069H156.306V10.9619H159.815V20.6142L164.944 15.6489H169.129L164.089 20.8876L169.58 28.0117H165.329L161.501 23.1616Z" fill="white"/>
<path d="M174.573 15.6489H171.064V28.0117H174.573V15.6489Z" fill="white"/>
<path d="M16.2093 32.3054C12.7288 32.3054 9.49729 30.3865 7.7688 27.3018L10.7091 25.5891C11.8364 27.604 13.9453 28.8513 16.2093 28.8513C18.4685 28.8513 20.5728 27.6088 21.7 25.6083L24.631 27.3353C22.9025 30.4008 19.6756 32.3054 16.2093 32.3054Z" fill="white"/>
<path d="M8.98999 20.715C8.57196 20.2881 8.3606 19.7507 8.3606 19.1079C8.3606 18.4507 8.57196 17.9182 8.98999 17.5104C9.40802 17.1026 9.92939 16.9011 10.5447 16.9011C11.16 16.9011 11.6767 17.1026 12.0947 17.5104C12.5127 17.9182 12.7241 18.4507 12.7241 19.1079C12.7241 19.7507 12.5127 20.2881 12.0947 20.715C11.6767 21.142 11.1553 21.3579 10.5447 21.3579C9.92939 21.3579 9.40802 21.142 8.98999 20.715Z" fill="white"/>
<path d="M20.3097 20.715C19.8917 20.2881 19.6803 19.7507 19.6803 19.1079C19.6803 18.4507 19.8917 17.9182 20.3097 17.5104C20.7277 17.1026 21.2491 16.9011 21.8644 16.9011C22.4797 16.9011 22.9964 17.1026 23.4144 17.5104C23.8324 17.9182 24.0438 18.4507 24.0438 19.1079C24.0438 19.7507 23.8324 20.2881 23.4144 20.715C22.9964 21.142 22.475 21.3579 21.8644 21.3579C21.2444 21.3579 20.7277 21.142 20.3097 20.715Z" fill="white"/>
</svg>
