<svg width="33" height="32" viewBox="0 0 33 32" fill="none" xmlns="http://www.w3.org/2000/svg">
<rect x="0.839355" width="32" height="32" rx="4" fill="white"/>
<path d="M22.3 11.9999C23 11.9999 23.6 11.3999 23.6 10.6999C23.6 9.9999 23 9.3999 22.3 9.3999C21.6 9.3999 21 9.8999 21 10.6999C21 11.3999 21.6 11.9999 22.3 11.9999Z" fill="#3D6EFF"/>
<path d="M13.2999 19.6997C14.2999 20.6997 15.5999 21.1997 16.9999 21.1997C19.8999 21.1997 22.1999 18.7997 22.1999 15.8997C22.1999 14.4997 21.6999 13.1997 20.6999 12.1997C19.6999 11.1997 18.3999 10.6997 16.9999 10.6997C14.0999 10.6997 11.6999 13.0997 11.7999 15.9997C11.7999 17.3997 12.2999 18.6997 13.2999 19.6997ZM16.9999 12.7997C18.7999 12.7997 20.1999 14.1997 20.1999 15.9997C20.1999 17.7997 18.7999 19.1997 16.9999 19.1997C15.1999 19.1997 13.7999 17.7997 13.7999 15.9997C13.7999 14.1997 15.1999 12.7997 16.9999 12.7997Z" fill="#3D6EFF"/>
<path d="M27.0999 11.8998C27.0999 11.0998 26.8999 10.1998 26.5999 9.3998C26.2999 8.6998 25.8999 8.0998 25.3999 7.5998C24.8999 7.0998 24.2999 6.6998 23.5999 6.3998C22.7999 6.0998 21.9999 5.9998 21.0999 5.8998C19.9999 5.7998 19.6999 5.7998 16.9999 5.7998C14.2999 5.7998 13.8999 5.7998 12.8999 5.8998C11.9999 5.9998 11.1999 6.0998 10.3999 6.3998C9.6999 6.6998 9.0999 7.0998 8.5999 7.5998C8.0999 8.0998 7.6999 8.6998 7.3999 9.3998C7.0999 10.1998 6.9999 10.9998 6.8999 11.8998C6.8999 12.8998 6.8999 13.2998 6.8999 15.9998C6.8999 18.6998 6.8999 19.0998 6.9999 20.0998C6.9999 20.8998 7.1999 21.7998 7.4999 22.5998C7.6999 23.2998 8.1999 23.8998 8.6999 24.3998C9.1999 24.8998 9.7999 25.2998 10.4999 25.5998C11.1999 25.8998 11.9999 25.9998 12.8999 26.0998C13.9999 26.1998 14.2999 26.1998 16.9999 26.1998C19.6999 26.1998 20.0999 26.1998 21.0999 26.0998C21.8999 26.0998 22.7999 25.8998 23.5999 25.5998C24.2999 25.3998 24.8999 24.8998 25.3999 24.3998C25.8999 23.8998 26.2999 23.2998 26.5999 22.5998C26.8999 21.7998 26.9999 20.9998 27.0999 20.0998C27.0999 19.6998 27.0999 19.3998 27.0999 18.9998C27.0999 18.3998 27.0999 17.5998 27.0999 15.9998C27.0999 13.2998 27.0999 12.8998 27.0999 11.8998ZM16.9999 7.8998C19.6999 7.8998 19.9999 7.8998 20.9999 7.9998C21.5999 7.9998 22.1999 8.0998 22.7999 8.2998C23.1999 8.4998 23.5999 8.6998 23.8999 9.0998C24.1999 9.3998 24.4999 9.7998 24.5999 10.1998C24.8999 10.6998 24.9999 11.3998 24.9999 11.9998C25.0999 12.9998 25.0999 13.3998 25.0999 15.9998C25.0999 18.5998 25.0999 18.9998 24.9999 19.9998C24.9999 20.5998 24.8999 21.1998 24.6999 21.7998C24.4999 22.1998 24.2999 22.5998 23.9999 22.8998C23.6999 23.1998 23.2999 23.4998 22.8999 23.5998C22.2999 23.8998 21.6999 23.9998 20.9999 23.9998C19.9999 23.9998 19.5999 23.9998 16.9999 23.9998C14.2999 23.9998 13.9999 23.9998 12.9999 23.8998C12.3999 23.8998 11.6999 23.7998 11.0999 23.5998C10.6999 23.3998 10.2999 23.1998 9.9999 22.8998C9.6999 22.5998 9.3999 22.1998 9.2999 21.7998C9.0999 21.2998 8.9999 20.5998 8.9999 19.9998C8.9999 19.5998 8.9999 19.2998 8.9999 18.9998C8.9999 18.3998 8.9999 17.6998 8.9999 15.9998C8.9999 13.2998 8.9999 12.9998 9.0999 11.9998C9.0999 11.3998 9.1999 10.6998 9.3999 10.0998C9.5999 9.6998 9.7999 9.2998 10.1999 8.9998C10.4999 8.6998 10.8999 8.3998 11.1999 8.1998C11.6999 8.0998 12.3999 7.9998 12.9999 7.9998C13.3999 7.9998 13.6999 7.9998 13.9999 7.9998C14.5999 7.8998 15.3999 7.8998 16.9999 7.8998Z" fill="#3D6EFF"/>
</svg>
