<svg width="32" height="32" viewBox="0 0 32 32" fill="none" xmlns="http://www.w3.org/2000/svg">
<rect width="32" height="32" rx="4" fill="white"/>
<path d="M25 15.0028V11.3371C23.3375 11.3371 22.0688 10.8789 21.25 9.98832C20.4097 8.97191 19.9389 7.68474 19.9188 6.34849V6.0839L16.5625 6C16.5625 6 16.5625 6.14843 16.5625 6.34849V20.8884C16.4474 21.538 16.142 22.1355 15.6876 22.6002C15.2332 23.0649 14.6516 23.3745 14.0215 23.4871C13.3913 23.5997 12.7428 23.51 12.1636 23.23C11.5844 22.95 11.1023 22.4932 10.7824 21.9214C10.4626 21.3495 10.3204 20.6901 10.375 20.0321C10.4296 19.3741 10.6783 18.7493 11.0878 18.242C11.4972 17.7346 12.0474 17.3692 12.6644 17.195C13.2813 17.0208 13.9351 17.0463 14.5375 17.268V13.7185C14.1862 13.6591 13.8309 13.6289 13.475 13.6281C12.1944 13.6281 10.9425 14.0203 9.87768 14.7549C8.81288 15.4896 7.98296 16.5338 7.49288 17.7555C7.00281 18.9772 6.87458 20.3215 7.12442 21.6184C7.37426 22.9154 7.99094 24.1067 8.89649 25.0417C9.80203 25.9768 10.9558 26.6136 12.2118 26.8715C13.4678 27.1295 14.7697 26.9971 15.9529 26.4911C17.136 25.985 18.1473 25.1281 18.8588 24.0286C19.5702 22.9291 19.95 21.6364 19.95 20.3141C19.9493 20.0401 19.9326 19.7664 19.9 19.4945V13.5894C21.4261 14.5736 23.2017 15.0656 25 15.0028Z" fill="#3D6EFF"/>
</svg>
