<svg width="33" height="32" viewBox="0 0 33 32" fill="none" xmlns="http://www.w3.org/2000/svg">
<rect x="0.839355" width="32" height="32" rx="4" fill="white"/>
<path d="M28.0088 13.4517C28.0583 12.0203 27.7452 10.5997 27.0988 9.32168C26.6602 8.79728 26.0515 8.44339 25.3788 8.32168C22.5963 8.06921 19.8023 7.96573 17.0088 8.01168C14.2255 7.96364 11.4415 8.06378 8.66882 8.31168C8.12064 8.4114 7.61333 8.66853 7.20882 9.05168C6.30882 9.88168 6.20882 11.3017 6.10882 12.5017C5.96373 14.6592 5.96373 16.8241 6.10882 18.9817C6.13775 19.6571 6.23831 20.3275 6.40882 20.9817C6.52939 21.4867 6.77334 21.954 7.11882 22.3417C7.52608 22.7451 8.0452 23.0169 8.60882 23.1217C10.7647 23.3878 12.937 23.4981 15.1088 23.4517C18.6088 23.5017 21.6788 23.4517 25.3088 23.1717C25.8863 23.0733 26.42 22.8012 26.8388 22.3917C27.1188 22.1116 27.3279 21.7688 27.4488 21.3917C27.8064 20.2943 27.9821 19.1458 27.9688 17.9917C28.0088 17.4317 28.0088 14.0517 28.0088 13.4517ZM14.7488 18.5917V12.4017L20.6688 15.5117C19.0088 16.4317 16.8188 17.4717 14.7488 18.5917Z" fill="#3D6EFF"/>
</svg>
